<svg width="35" height="350" viewBox="0 0 60 518" fill="none" xmlns="http://www.w3.org/2000/svg">
<path d="M56.568 2.104L58.568 2.104L58.568 0.104L56.568 0.103999L56.568 2.104ZM3 2.104L3 0.103997L1 0.103997L1 2.104L3 2.104ZM3 18.88L0.999999 18.88L0.999999 20.88L3 20.88L3 18.88ZM20.856 18.88L22.856 18.88L22.856 16.88L20.856 16.88L20.856 18.88ZM44.4 18.88L46.4 18.88L46.4 16.88L44.4 16.88L44.4 18.88ZM32.88 18.88L32.88 16.88L30.88 16.88L30.88 18.88L32.88 18.88ZM18.856 42.28C18.856 52.0858 20.8946 58.8724 24.5096 63.2308C28.1828 67.6594 33.214 69.264 38.424 69.264L38.424 65.264C34.058 65.264 30.3052 63.9526 27.5884 60.6772C24.8134 57.3316 22.856 51.6262 22.856 42.28L18.856 42.28ZM38.424 69.264L39.144 69.264L39.144 65.264L38.424 65.264L38.424 69.264ZM39.144 69.264C44.4411 69.264 49.4547 67.7073 53.0769 63.2733C56.6292 58.9247 58.568 52.1337 58.568 42.28L54.568 42.28C54.568 51.7223 52.6908 57.4233 49.9791 60.7427C47.3372 63.9767 43.6389 65.264 39.144 65.264L39.144 69.264ZM58.568 42.28L58.568 2.104L54.568 2.104L54.568 42.28L58.568 42.28ZM56.568 0.103999L3 0.103997L3 4.104L56.568 4.104L56.568 0.103999ZM1 2.104L0.999999 18.88L5 18.88L5 2.104L1 2.104ZM3 20.88L20.856 20.88L20.856 16.88L3 16.88L3 20.88ZM18.856 18.88L18.856 42.28L22.856 42.28L22.856 18.88L18.856 18.88ZM42.4 18.88L42.4 41.992L46.4 41.992L46.4 18.88L42.4 18.88ZM42.4 41.992C42.4 44.5028 41.9207 45.9305 41.3398 46.696C40.8406 47.3538 40.0793 47.768 38.712 47.768L38.712 51.768C41.0167 51.768 43.0994 50.9943 44.5262 49.114C45.8713 47.3415 46.4 44.8812 46.4 41.992L42.4 41.992ZM38.712 47.768L38.496 47.768L38.496 51.768L38.712 51.768L38.712 47.768ZM38.496 47.768C37.1688 47.768 36.4215 47.3461 35.9231 46.6673C35.3413 45.8749 34.88 44.4312 34.88 41.992L30.88 41.992C30.88 44.8088 31.3907 47.2531 32.6989 49.0347C34.0905 50.9299 36.1512 51.768 38.496 51.768L38.496 47.768ZM34.88 41.992L34.88 18.88L30.88 18.88L30.88 41.992L34.88 41.992ZM32.88 20.88L44.4 20.88L44.4 16.88L32.88 16.88L32.88 20.88ZM3 80.0384L3 78.0384L0.999997 78.0384L0.999996 80.0384L3 80.0384ZM3 96.8144L0.999996 96.8144L0.999996 98.8144L3 98.8144L3 96.8144ZM24.096 96.8144L26.096 96.8144L26.096 94.8144L24.096 94.8144L24.096 96.8144ZM24.096 132.814L24.096 134.814L26.096 134.814L26.096 132.814L24.096 132.814ZM2.99999 132.814L2.99999 130.814L0.999994 130.814L0.999994 132.814L2.99999 132.814ZM2.99999 149.59L0.999993 149.59L0.999993 151.59L2.99999 151.59L2.99999 149.59ZM56.568 149.59L56.568 151.59L58.568 151.59L58.568 149.59L56.568 149.59ZM56.568 132.814L58.568 132.814L58.568 130.814L56.568 130.814L56.568 132.814ZM37.056 132.814L35.056 132.814L35.056 134.814L37.056 134.814L37.056 132.814ZM37.056 96.8144L37.056 94.8144L35.056 94.8144L35.056 96.8144L37.056 96.8144ZM56.568 96.8144L56.568 98.8144L58.568 98.8144L58.568 96.8144L56.568 96.8144ZM56.568 80.0384L58.568 80.0384L58.568 78.0384L56.568 78.0384L56.568 80.0384ZM0.999996 80.0384L0.999996 96.8144L5 96.8144L5 80.0384L0.999996 80.0384ZM3 98.8144L24.096 98.8144L24.096 94.8144L3 94.8144L3 98.8144ZM22.096 96.8144L22.096 132.814L26.096 132.814L26.096 96.8144L22.096 96.8144ZM24.096 130.814L2.99999 130.814L2.99999 134.814L24.096 134.814L24.096 130.814ZM0.999994 132.814L0.999993 149.59L4.99999 149.59L4.99999 132.814L0.999994 132.814ZM2.99999 151.59L56.568 151.59L56.568 147.59L2.99999 147.59L2.99999 151.59ZM58.568 149.59L58.568 132.814L54.568 132.814L54.568 149.59L58.568 149.59ZM56.568 130.814L37.056 130.814L37.056 134.814L56.568 134.814L56.568 130.814ZM39.056 132.814L39.056 96.8144L35.056 96.8144L35.056 132.814L39.056 132.814ZM37.056 98.8144L56.568 98.8144L56.568 94.8144L37.056 94.8144L37.056 98.8144ZM58.568 96.8144L58.568 80.0384L54.568 80.0384L54.568 96.8144L58.568 96.8144ZM56.568 78.0384L3 78.0384L3 82.0384L56.568 82.0384L56.568 78.0384ZM59.504 200.572C59.504 183.314 55.198 173.257 49.2297 167.546C43.2684 161.842 36.0316 160.844 31.008 160.844L31.008 164.844C35.5604 164.844 41.5716 165.754 46.4643 170.436C51.35 175.111 55.504 183.918 55.504 200.572L59.504 200.572ZM31.008 160.844L28.848 160.844L28.848 164.844L31.008 164.844L31.008 160.844ZM28.848 160.844C23.8942 160.844 16.5955 161.842 10.5482 167.535C4.48553 173.241 0.0639949 183.3 0.0639941 200.572L4.06399 200.572C4.06399 183.932 8.31846 175.127 13.2898 170.447C18.2765 165.753 24.3698 164.844 28.848 164.844L28.848 160.844ZM0.0639941 200.572L0.063994 203.668L4.06399 203.668L4.06399 200.572L0.0639941 200.572ZM0.063994 203.668C0.0639932 220.871 4.48694 230.91 10.5482 236.615C16.5932 242.305 23.8894 243.324 28.848 243.324L28.848 239.324C24.3746 239.324 18.2788 238.399 13.2898 233.703C8.31704 229.022 4.06399 220.233 4.06399 203.668L0.063994 203.668ZM28.848 243.324L31.008 243.324L31.008 239.324L28.848 239.324L28.848 243.324ZM31.008 243.324C36.0417 243.324 43.274 242.286 49.231 236.576C55.1959 230.858 59.504 220.822 59.504 203.668L55.504 203.668C55.504 220.21 51.3521 229.002 46.463 233.688C41.566 238.382 35.5503 239.324 31.008 239.324L31.008 243.324ZM59.504 203.668L59.504 200.572L55.504 200.572L55.504 203.668L59.504 203.668ZM29.496 221.756C26.7934 221.756 23.8094 220.965 21.4665 218.339C19.0905 215.675 17.096 210.816 17.096 202.084L13.096 202.084C13.096 211.352 15.2055 217.329 18.4815 221.001C21.7905 224.711 26.0066 225.756 29.496 225.756L29.496 221.756ZM17.096 202.084C17.096 193.287 19.1408 188.436 21.5512 185.791C23.9342 183.177 26.9574 182.412 29.64 182.412L29.64 178.412C26.2026 178.412 21.9538 179.411 18.5948 183.097C15.2632 186.752 13.096 192.737 13.096 202.084L17.096 202.084ZM29.64 182.412L30.504 182.412L30.504 178.412L29.64 178.412L29.64 182.412ZM30.504 182.412C33.2122 182.412 36.0791 183.118 38.3187 185.659C40.6077 188.255 42.544 193.105 42.544 202.084L46.544 202.084C46.544 192.631 44.5203 186.645 41.3193 183.013C38.0689 179.326 33.9158 178.412 30.504 178.412L30.504 182.412ZM42.544 202.084C42.544 210.909 40.6121 215.77 38.3112 218.41C36.0556 220.998 33.1767 221.756 30.504 221.756L30.504 225.756C33.9512 225.756 38.0924 224.75 41.3268 221.038C44.5159 217.378 46.544 211.403 46.544 202.084L42.544 202.084ZM30.504 221.756L29.496 221.756L29.496 225.756L30.504 225.756L30.504 221.756ZM56.568 254.54L58.568 254.54L58.568 252.54L56.568 252.54L56.568 254.54ZM2.99999 254.54L2.99999 252.54L0.999989 252.54L0.999989 254.54L2.99999 254.54ZM2.99999 311.708L0.999986 311.708L0.999986 313.708L2.99999 313.708L2.99999 311.708ZM15.456 311.708L15.456 313.708L17.456 313.708L17.456 311.708L15.456 311.708ZM15.456 271.1L15.456 269.1L13.456 269.1L13.456 271.1L15.456 271.1ZM24.24 271.1L26.24 271.1L26.24 269.1L24.24 269.1L24.24 271.1ZM24.24 310.052L22.24 310.052L22.24 312.052L24.24 312.052L24.24 310.052ZM36.48 310.052L36.48 312.052L38.48 312.052L38.48 310.052L36.48 310.052ZM36.48 271.1L36.48 269.1L34.48 269.1L34.48 271.1L36.48 271.1ZM44.4 271.1L46.4 271.1L46.4 269.1L44.4 269.1L44.4 271.1ZM44.4 310.988L42.4 310.988L42.4 312.988L44.4 312.988L44.4 310.988ZM56.568 310.988L56.568 312.988L58.568 312.988L58.568 310.988L56.568 310.988ZM56.568 252.54L2.99999 252.54L2.99999 256.54L56.568 256.54L56.568 252.54ZM0.999989 254.54L0.999986 311.708L4.99999 311.708L4.99999 254.54L0.999989 254.54ZM2.99999 313.708L15.456 313.708L15.456 309.708L2.99999 309.708L2.99999 313.708ZM17.456 311.708L17.456 271.1L13.456 271.1L13.456 311.708L17.456 311.708ZM15.456 273.1L24.24 273.1L24.24 269.1L15.456 269.1L15.456 273.1ZM22.24 271.1L22.24 310.052L26.24 310.052L26.24 271.1L22.24 271.1ZM24.24 312.052L36.48 312.052L36.48 308.052L24.24 308.052L24.24 312.052ZM38.48 310.052L38.48 271.1L34.48 271.1L34.48 310.052L38.48 310.052ZM36.48 273.1L44.4 273.1L44.4 269.1L36.48 269.1L36.48 273.1ZM42.4 271.1L42.4 310.988L46.4 310.988L46.4 271.1L42.4 271.1ZM44.4 312.988L56.568 312.988L56.568 308.988L44.4 308.988L44.4 312.988ZM58.568 310.988L58.568 254.54L54.568 254.54L54.568 310.988L58.568 310.988ZM56.568 325.865L58.568 325.865L58.568 323.865L56.568 323.865L56.568 325.865ZM2.99999 325.865L2.99999 323.865L0.999986 323.865L0.999986 325.865L2.99999 325.865ZM2.99998 342.425L0.999985 342.425L0.999985 344.425L2.99998 344.425L2.99998 342.425ZM38.496 342.425L39.9271 343.822L43.2435 340.425L38.496 340.425L38.496 342.425ZM2.99998 378.785L1.56887 377.388L0.999983 377.971L0.999983 378.785L2.99998 378.785ZM2.99998 395.345L0.999983 395.345L0.999983 397.345L2.99998 397.345L2.99998 395.345ZM56.568 395.345L56.568 397.345L58.568 397.345L58.568 395.345L56.568 395.345ZM56.568 378.785L58.568 378.785L58.568 376.785L56.568 376.785L56.568 378.785ZM22.872 378.785L21.4473 377.381L18.0938 380.785L22.872 380.785L22.872 378.785ZM56.568 344.585L57.9927 345.989L58.568 345.405L58.568 344.585L56.568 344.585ZM56.568 323.865L2.99999 323.865L2.99999 327.865L56.568 327.865L56.568 323.865ZM0.999986 325.865L0.999985 342.425L4.99998 342.425L4.99999 325.865L0.999986 325.865ZM2.99998 344.425L38.496 344.425L38.496 340.425L2.99999 340.425L2.99998 344.425ZM37.0649 341.028L1.56887 377.388L4.4311 380.182L39.9271 343.822L37.0649 341.028ZM0.999983 378.785L0.999983 395.345L4.99998 395.345L4.99998 378.785L0.999983 378.785ZM2.99998 397.345L56.568 397.345L56.568 393.345L2.99998 393.345L2.99998 397.345ZM58.568 395.345L58.568 378.785L54.568 378.785L54.568 395.345L58.568 395.345ZM56.568 376.785L22.872 376.785L22.872 380.785L56.568 380.785L56.568 376.785ZM24.2967 380.189L57.9927 345.989L55.1433 343.181L21.4473 377.381L24.2967 380.189ZM58.568 344.585L58.568 325.865L54.568 325.865L54.568 344.585L58.568 344.585ZM56.568 427.536L56.568 429.536L58.568 429.536L58.568 427.536L56.568 427.536ZM56.568 410.76L58.568 410.76L58.568 408.76L56.568 408.76L56.568 410.76ZM2.99998 410.76L2.99998 408.76L0.999982 408.76L0.999982 410.76L2.99998 410.76ZM2.99998 427.536L0.999981 427.536L0.999981 429.536L2.99998 429.536L2.99998 427.536ZM58.568 427.536L58.568 410.76L54.568 410.76L54.568 427.536L58.568 427.536ZM56.568 408.76L2.99998 408.76L2.99998 412.76L56.568 412.76L56.568 408.76ZM0.999982 410.76L0.999981 427.536L4.99998 427.536L4.99998 410.76L0.999982 410.76ZM2.99998 429.536L56.568 429.536L56.568 425.536L2.99998 425.536L2.99998 429.536ZM2.99998 458.761L0.99998 458.761L0.99998 459.602L1.60132 460.191L2.99998 458.761ZM19.632 475.033L21.0369 476.457L22.4854 475.027L21.0306 473.604L19.632 475.033ZM2.99998 491.449L1.59504 490.026L0.999978 490.613L0.999978 491.449L2.99998 491.449ZM2.99998 512.545L0.999978 512.545L0.999977 517.231L4.38354 513.989L2.99998 512.545ZM30.432 486.265L31.8344 484.839L30.4503 483.478L29.0484 484.821L30.432 486.265ZM56.568 511.969L55.1656 513.395L58.568 516.741L58.568 511.969L56.568 511.969ZM56.568 491.377L58.568 491.377L58.568 490.527L57.9555 489.937L56.568 491.377ZM40.872 476.257L39.4844 474.817L37.9892 476.257L39.4844 477.698L40.872 476.257ZM56.568 461.137L57.9555 462.578L58.568 461.988L58.568 461.137L56.568 461.137ZM56.568 438.673L58.568 438.673L58.568 433.9L55.1654 437.247L56.568 438.673ZM30.072 464.737L28.6692 466.163L30.0717 467.543L31.4745 466.163L30.072 464.737ZM2.99998 438.097L4.40277 436.672L0.999981 433.323L0.999981 438.097L2.99998 438.097ZM1.60132 460.191L18.2333 476.463L21.0306 473.604L4.39864 457.332L1.60132 460.191ZM18.227 473.61L1.59504 490.026L4.40492 492.873L21.0369 476.457L18.227 473.61ZM0.999978 491.449L0.999978 512.545L4.99998 512.545L4.99998 491.449L0.999978 491.449ZM4.38354 513.989L31.8155 487.709L29.0484 484.821L1.61642 511.101L4.38354 513.989ZM29.0296 487.691L55.1656 513.395L57.9704 510.543L31.8344 484.839L29.0296 487.691ZM58.568 511.969L58.568 491.377L54.568 491.377L54.568 511.969L58.568 511.969ZM57.9555 489.937L42.2595 474.817L39.4844 477.698L55.1804 492.818L57.9555 489.937ZM42.2595 477.698L57.9555 462.578L55.1804 459.697L39.4844 474.817L42.2595 477.698ZM58.568 461.137L58.568 438.673L54.568 438.673L54.568 461.137L58.568 461.137ZM55.1654 437.247L28.6694 463.311L31.4745 466.163L57.9705 440.099L55.1654 437.247ZM31.4748 463.312L4.40277 436.672L1.59719 439.523L28.6692 466.163L31.4748 463.312ZM0.999981 438.097L0.99998 458.761L4.99998 458.761L4.99998 438.097L0.999981 438.097Z" fill="white"/>
</svg>
